<svg width="72" height="72" viewBox="0 0 72 72" fill="none" xmlns="http://www.w3.org/2000/svg">
<rect width="72" height="72" rx="8" fill="#42403A"/>
<mask id="mask0" mask-type="alpha" maskUnits="userSpaceOnUse" x="0" y="0" width="72" height="72">
<path fill-rule="evenodd" clip-rule="evenodd" d="M72 0H0V72H72V0ZM25 18C25 19.6569 23.6569 21 22 21C20.3431 21 19 19.6569 19 18C19 16.3431 20.3431 15 22 15C23.6569 15 25 16.3431 25 18ZM39 36C39 37.6569 37.6569 39 36 39C34.3431 39 33 37.6569 33 36C33 34.3431 34.3431 33 36 33C37.6569 33 39 34.3431 39 36ZM50 21C51.6569 21 53 19.6569 53 18C53 16.3431 51.6569 15 50 15C48.3431 15 47 16.3431 47 18C47 19.6569 48.3431 21 50 21ZM39 58C39 59.6569 37.6569 61 36 61C34.3431 61 33 59.6569 33 58C33 56.3431 34.3431 55 36 55C37.6569 55 39 56.3431 39 58Z" fill="#C4C4C4"/>
</mask>
<g mask="url(#mask0)">
<path d="M36 36L36 58" stroke="white" stroke-width="2"/>
<path d="M22 18L36 35.9999" stroke="white" stroke-width="2" stroke-linecap="round" stroke-linejoin="round"/>
<path d="M50.1112 18L36.1112 35.9999" stroke="white" stroke-width="2" stroke-linecap="round" stroke-linejoin="round"/>
</g>
<circle cx="36" cy="56" r="3" fill="white"/>
<circle cx="36" cy="36" r="3.75" stroke="white" stroke-width="2"/>
<circle cx="22" cy="18" r="3.75" stroke="white" stroke-width="2"/>
<circle cx="50" cy="18" r="3.75" stroke="white" stroke-width="2"/>
</svg>
